HIERARCHY
ROOT Pelvis
{
	OFFSET 0.000000 0.000000 0.000000
	CHANNELS 6 Xposition Yposition Zposition Xrotation Yrotation Zrotation
	JOINT LeftUpLeg_virtual
	{
		OFFSET 0.000000 0.000000 0.000000
		CHANNELS 3 Xrotation Yrotation Zrotation
		JOINT LeftUpLeg
		{
			OFFSET 18.735201 -5.666702 -4.541200
			CHANNELS 3 Xrotation Yrotation Zrotation
			JOINT LeftLeg
			{
				OFFSET -0.021200 -31.938179 0.493100
				CHANNELS 3 Xrotation Yrotation Zrotation
				JOINT LeftFoot
				{
					OFFSET 0.021200 -31.938179 -4.336299
					CHANNELS 3 Xrotation Yrotation Zrotation
					JOINT LeftToeBase
					{
						OFFSET 0.943001 -26.722000 15.023500
						CHANNELS 3 Xrotation Yrotation Zrotation
						End Site
						{
							OFFSET 0 0 0
						}
					}
				}
			}
		}
	}
	JOINT RightUpLeg_virtual
	{
		OFFSET 0.000000 0.000000 0.000000
		CHANNELS 3 Xrotation Yrotation Zrotation
		JOINT RightUpLeg
		{
			OFFSET -18.735201 -5.666702 -4.541200
			CHANNELS 3 Xrotation Yrotation Zrotation
			JOINT RightLeg
			{
				OFFSET 0.018946 -31.938133 0.493100
				CHANNELS 3 Xrotation Yrotation Zrotation
				JOINT RightFoot
				{
					OFFSET -0.018946 -31.938126 -4.336299
					CHANNELS 3 Xrotation Yrotation Zrotation
					JOINT RightToeBase
					{
						OFFSET -0.943001 -26.722004 15.023500
						CHANNELS 3 Xrotation Yrotation Zrotation
						End Site
						{
							OFFSET 0 0 0
						}
					}
				}
			}
		}
	}
	JOINT Hips_virtual
	{
		OFFSET 0.000000 0.000000 0.000000
		CHANNELS 3 Xrotation Yrotation Zrotation
		JOINT Hips
		{
			OFFSET -0.000000 -0.000000 -0.000000
			CHANNELS 3 Xrotation Yrotation Zrotation
			JOINT Spine
			{
				OFFSET 0.000000 10.199997 -0.299500
				CHANNELS 3 Xrotation Yrotation Zrotation
				JOINT Spine1
				{
					OFFSET 0.000000 11.900002 -1.516600
					CHANNELS 3 Xrotation Yrotation Zrotation
					JOINT Spine2
					{
						OFFSET 0.000000 13.600006 -2.842500
						CHANNELS 3 Xrotation Yrotation Zrotation
						JOINT Neck_virtual
						{
							OFFSET 0.000000 0.000000 0.000000
							CHANNELS 3 Xrotation Yrotation Zrotation
							JOINT Neck
							{
								OFFSET 0.000000 9.624100 -2.890100
								CHANNELS 3 Xrotation Yrotation Zrotation
								JOINT Head
								{
									OFFSET 0.000000 14.068802 -1.351900
									CHANNELS 3 Xrotation Yrotation Zrotation
									End Site
									{
										OFFSET 0 0 0
									}
								}
							}
						}
						JOINT LeftShoulder_virtual
						{
							OFFSET 0.000000 0.000000 0.000000
							CHANNELS 3 Xrotation Yrotation Zrotation
							JOINT LeftShoulder
							{
								OFFSET 15.263000 10.923401 -0.547700
								CHANNELS 3 Xrotation Yrotation Zrotation
								JOINT LeftArm
								{
									OFFSET 25.438599 -2.830597 -13.032500
									CHANNELS 3 Xrotation Yrotation Zrotation
									JOINT LeftForeArm
									{
										OFFSET 29.960503 0.000000 0.000000
										CHANNELS 3 Xrotation Yrotation Zrotation
										JOINT LeftHand
										{
											OFFSET 27.849251 0.000000 0.000000
											CHANNELS 3 Xrotation Yrotation Zrotation
											End Site
											{
												OFFSET 0 0 0
											}
										}
									}
								}
							}
						}
						JOINT RightShoulder_virtual
						{
							OFFSET 0.000000 0.000000 0.000000
							CHANNELS 3 Xrotation Yrotation Zrotation
							JOINT RightShoulder
							{
								OFFSET -15.263000 10.923401 -0.547700
								CHANNELS 3 Xrotation Yrotation Zrotation
								JOINT RightArm
								{
									OFFSET -25.438599 -2.830597 -13.032500
									CHANNELS 3 Xrotation Yrotation Zrotation
									JOINT RightForeArm
									{
										OFFSET -29.960503 0.000000 0.000000
										CHANNELS 3 Xrotation Yrotation Zrotation
										JOINT RightHand
										{
											OFFSET -27.849251 0.000000 0.000000
											CHANNELS 3 Xrotation Yrotation Zrotation
											End Site
											{
												OFFSET 0 0 0
											}
										}
									}
								}
							}
						}
					}
				}
			}
		}
	}
}
MOTION
Frames: 13
Frame Time: 0.03333333
-4.305383 78.532303 5.662308 0.000000 0.000000 0.000000 19.375804 -43.514920 5.469191 -80.537998 -13.446034 15.110979 48.371755 -8.740787 4.579636 25.665093 -2.227067 -14.455805 0.000000 0.000000 0.000000 19.375804 -43.514920 5.469191 -32.875572 -7.133336 -17.292195 58.300213 -5.794061 4.293835 -24.193865 -23.448588 23.735169 0.000000 0.000000 0.000000 19.375804 -43.514920 5.469191 0.000001 0.000000 0.000000 0.691442 6.289172 0.433707 -1.588677 4.492982 -2.192220 0.000000 0.000000 0.000000 -1.597444 -0.195616 1.993554 4.942508 2.712381 -1.664145 0.000000 0.000000 0.000000 -1.597444 -0.195616 1.993554 3.544244 4.756002 -11.623020 -54.038845 -33.116428 -50.381545 -0.000182 -81.882357 -0.000163 0.000000 0.000000 0.000000 -1.597444 -0.195616 1.993554 -14.733698 2.115980 -4.463086 -107.662455 41.165953 127.346500 -0.000013 29.080688 0.000003 0.000000 0.000000 0.000000 
-4.056305 80.487923 -1.204948 0.000000 0.000000 0.000000 21.515794 -44.002322 7.172375 -83.120131 -8.376788 13.254434 60.015445 -10.622642 0.776323 16.676253 -2.769346 -19.695696 0.000000 0.000000 0.000000 21.515794 -44.002322 7.172375 -39.977661 -7.943547 -14.242509 59.598947 -7.201946 7.245799 -23.426106 -21.176532 16.049584 0.000000 0.000000 0.000000 21.515794 -44.002322 7.172375 0.000002 0.000001 -0.000000 1.086790 6.575604 0.714202 -1.310868 4.621464 -2.233294 0.000000 0.000000 0.000000 -1.314411 -0.079137 1.955559 4.714074 2.662063 -1.587216 0.000000 0.000000 0.000000 -1.314411 -0.079137 1.955559 3.451686 4.257294 -11.406563 -55.761535 -33.679321 -50.844850 0.000147 -80.674206 0.000121 0.000000 0.000000 0.000000 -1.314411 -0.079137 1.955559 -14.702144 2.142272 -4.298180 -107.261345 40.351023 126.260992 0.000010 28.981982 -0.000013 0.000000 0.000000 0.000000 
-4.043792 81.445709 -7.610722 0.000000 0.000000 0.000000 25.160574 -46.526856 9.586646 -83.694112 -3.524429 11.368460 65.926099 -9.663796 -1.517175 13.936770 -10.250991 -21.720299 0.000000 0.000000 0.000000 25.160574 -46.526856 9.586646 -46.355073 -9.680775 -13.195235 59.714008 -7.450479 10.709222 -21.924245 -13.884251 12.571520 0.000000 0.000000 0.000000 25.160574 -46.526856 9.586646 0.000000 0.000001 0.000000 0.953393 8.229838 1.161658 -1.320864 5.331378 -2.300519 0.000000 0.000000 0.000000 -1.329632 0.607860 1.876773 4.553060 2.547693 -1.522880 0.000000 0.000000 0.000000 -1.329632 0.607860 1.876773 3.596419 4.391567 -11.859939 -57.750875 -35.526194 -51.867548 -0.000091 -78.626945 -0.000082 0.000000 0.000000 0.000000 -1.329632 0.607860 1.876773 -14.638250 2.328216 -4.086762 -106.215199 40.122478 124.749089 0.000008 29.445523 -0.000011 0.000000 0.000000 0.000000 
-4.216572 81.323692 -14.424541 0.000000 0.000000 0.000000 29.192488 -49.608880 12.478016 -84.204327 -0.693019 7.838178 69.914376 -9.118525 -2.282464 12.777401 -15.057623 -16.346830 0.000000 0.000000 0.000000 29.192488 -49.608880 12.478016 -51.734141 -11.502315 -13.812935 61.645626 -7.723790 10.932817 -19.723300 -5.380889 18.986300 0.000000 0.000000 0.000000 29.192488 -49.608880 12.478016 0.000000 0.000003 0.000000 0.725993 9.881930 1.193013 -1.412600 6.214299 -2.374923 0.000000 0.000000 0.000000 -1.420885 1.466141 1.785861 4.379090 2.422008 -1.419426 0.000000 0.000000 0.000000 -1.420885 1.466141 1.785861 3.755950 4.786399 -12.306301 -59.645248 -36.720723 -52.832022 0.000021 -77.533528 0.000032 0.000000 0.000000 0.000000 -1.420885 1.466141 1.785861 -14.573079 2.615656 -3.942827 -105.630877 39.843485 123.612490 -0.000004 30.127527 0.000010 0.000000 0.000000 0.000000 
-3.953638 81.168564 -21.430328 0.000000 0.000000 0.000000 31.949053 -52.333145 14.678930 -82.679242 0.156189 2.375180 74.684451 -7.888211 -1.036296 2.819997 -12.764544 -2.095062 0.000000 0.000000 0.000000 31.949053 -52.333145 14.678930 -51.740510 -10.536258 -16.537059 61.111472 -3.581582 10.438159 -14.694626 -7.674839 30.586871 0.000000 0.000000 0.000000 31.949053 -52.333145 14.678930 0.000000 -0.000002 0.000002 0.649343 10.731631 0.855497 -1.441042 6.935560 -2.342156 0.000000 0.000000 0.000000 -1.434989 2.171085 1.809964 4.214688 2.312199 -1.250606 0.000000 0.000000 0.000000 -1.434989 2.171085 1.809964 3.737826 5.186352 -12.169494 -61.002817 -36.579454 -53.384526 -0.000080 -77.789783 -0.000056 0.000000 0.000000 0.000000 -1.434989 2.171085 1.809964 -14.485477 2.979853 -3.728753 -105.450881 39.117009 123.007049 0.000015 30.733662 -0.000018 0.000000 0.000000 0.000000 
-3.456789 80.872780 -27.742424 0.000000 0.000000 0.000000 32.892924 -54.706687 15.012459 -78.623592 -1.255704 -0.210184 74.027953 -7.415069 1.003473 -6.702699 -7.835120 9.347785 0.000000 0.000000 0.000000 32.892924 -54.706687 15.012459 -44.913384 -8.734642 -17.056767 59.923230 -6.935394 9.272227 -13.801403 -13.294936 36.362875 0.000000 0.000000 0.000000 32.892924 -54.706687 15.012459 0.000000 0.000001 0.000000 0.454340 11.046240 1.061252 -1.453268 7.305010 -2.104961 0.000000 0.000000 0.000000 -1.422326 2.536735 2.054908 4.138416 2.235583 -1.083006 0.000000 0.000000 0.000000 -1.422326 2.536735 2.054908 3.550925 5.581991 -11.496887 -61.351170 -35.791694 -53.544274 -0.000054 -78.530045 -0.000065 0.000000 0.000000 0.000000 -1.422326 2.536735 2.054908 -14.353373 3.472799 -3.349508 -105.291881 38.536597 122.713200 -0.000003 31.045634 0.000009 0.000000 0.000000 0.000000 
-3.581775 79.308838 -33.201965 0.000000 0.000000 0.000000 32.627230 -56.065919 14.601790 -80.294939 -4.666568 2.675973 76.551319 -9.305932 1.988406 -11.444353 -4.606858 7.684173 0.000000 0.000000 0.000000 32.627230 -56.065919 14.601790 -38.365815 -6.536120 -17.499530 60.527996 -8.053508 8.360619 -17.192045 -22.896947 28.385079 0.000000 0.000000 0.000000 32.627230 -56.065919 14.601790 0.000001 0.000000 0.000000 0.169626 10.703925 1.110404 -1.494045 7.307621 -1.923202 0.000000 0.000000 0.000000 -1.447118 2.538741 2.256062 4.126940 2.209669 -0.961228 0.000000 0.000000 0.000000 -1.447118 2.538741 2.256062 3.334877 5.817580 -10.768855 -61.147719 -35.377060 -53.281527 -0.000037 -78.871473 -0.000072 0.000000 0.000000 0.000000 -1.447118 2.538741 2.256062 -14.235484 3.916848 -2.985951 -105.275215 38.396790 122.510986 -0.000017 31.020349 0.000016 0.000000 0.000000 0.000000 
-4.064136 76.958199 -38.361496 0.000000 0.000000 0.000000 31.926879 -56.259790 14.695893 -85.291892 -7.229851 6.778756 79.887784 -9.950512 1.888402 -10.622547 -6.267104 3.134347 0.000000 0.000000 0.000000 31.926879 -56.259790 14.695893 -31.005504 -5.031123 -18.923384 54.867299 -8.761314 4.304577 -13.998638 -30.850537 23.227522 0.000000 0.000000 0.000000 31.926879 -56.259790 14.695893 -0.000003 -0.000001 -0.000001 0.001887 10.019777 0.485779 -1.542905 7.113663 -2.007057 0.000000 0.000000 0.000000 -1.506398 2.348791 2.188365 4.147372 2.192730 -0.912619 0.000000 0.000000 0.000000 -1.506398 2.348791 2.188365 3.229230 5.569753 -10.469485 -61.046810 -35.698633 -52.721913 0.000065 -78.556451 0.000084 0.000000 0.000000 0.000000 -1.506398 2.348791 2.188365 -14.212877 3.948331 -2.841239 -105.256152 38.350047 122.318456 -0.000017 30.788181 0.000011 0.000000 0.000000 0.000000 
-4.714567 74.417389 -43.468582 0.000000 0.000000 0.000000 30.871663 -56.002459 15.270276 -90.143006 -9.154573 10.556682 81.549167 -10.252733 1.343091 -6.949018 -9.688804 -0.802317 0.000000 0.000000 0.000000 30.871663 -56.002459 15.270276 -22.885368 -3.681510 -22.502482 44.295682 -9.042170 -1.249439 -2.860642 -31.072487 25.331929 0.000000 0.000000 0.000000 30.871663 -56.002459 15.270276 0.000002 0.000001 0.000001 0.032564 9.506118 -0.628675 -1.564682 6.937743 -2.234466 0.000000 0.000000 0.000000 -1.550382 2.186476 1.969676 4.227669 2.136698 -0.957539 0.000000 0.000000 0.000000 -1.550382 2.186476 1.969676 3.282736 4.847617 -10.756194 -61.042179 -36.454373 -52.156622 0.000151 -77.891505 0.000143 0.000000 0.000000 0.000000 -1.550382 2.186476 1.969676 -14.284290 3.581174 -2.943436 -104.954135 38.366904 122.101311 -0.000002 30.519515 -0.000008 0.000000 0.000000 0.000000 
-5.291297 72.062263 -48.644066 0.000000 0.000000 0.000000 29.811498 -56.273806 16.346138 -92.640581 -11.641807 13.606179 81.225224 -10.635086 1.293119 -4.094457 -11.449654 -5.882737 0.000000 0.000000 0.000000 29.811498 -56.273806 16.346138 -15.186157 -2.657918 -25.162820 34.443240 -10.249798 -8.241812 9.677780 -31.701421 30.511124 0.000000 0.000000 0.000000 29.811498 -56.273806 16.346138 0.000002 0.000004 -0.000000 0.315761 9.392761 -2.200109 -1.445904 6.883727 -2.479883 0.000000 0.000000 0.000000 -1.437366 2.154570 1.742639 4.326493 2.055941 -1.073506 0.000000 0.000000 0.000000 -1.437366 2.154570 1.742639 3.443606 4.197412 -11.398962 -60.879990 -37.143603 -51.931653 0.000021 -77.288945 0.000011 0.000000 0.000000 0.000000 -1.437366 2.154570 1.742639 -14.393551 3.219231 -3.282609 -104.731382 38.866508 121.968846 0.000016 30.312936 -0.000012 0.000000 0.000000 0.000000 
-5.527665 70.276230 -53.823288 0.000000 0.000000 0.000000 29.456895 -57.775908 17.746320 -92.215436 -15.196838 16.381290 79.123199 -10.864443 2.053266 -2.795454 -11.088973 -12.557039 0.000000 0.000000 0.000000 29.456895 -57.775908 17.746320 -8.820774 -1.584250 -27.662481 26.055934 -9.989378 -11.632500 19.755981 -31.098835 32.504976 0.000000 0.000000 0.000000 29.456895 -57.775908 17.746320 0.000000 0.000000 0.000000 0.540216 9.732018 -3.352646 -1.320424 6.942800 -2.671818 0.000000 0.000000 0.000000 -1.304249 2.232742 1.571226 4.418615 2.003192 -1.177161 0.000000 0.000000 0.000000 -1.304249 2.232742 1.571226 3.611027 4.105586 -11.972104 -60.470527 -37.205874 -52.059494 0.000149 -77.263783 0.000170 0.000000 0.000000 0.000000 -1.304249 2.232742 1.571226 -14.482936 3.134036 -3.735795 -104.873894 39.624735 122.166020 -0.000000 30.302763 0.000007 0.000000 0.000000 0.000000 
-5.374137 69.010429 -59.206627 0.000000 0.000000 0.000000 30.215538 -60.627819 19.793989 -88.871635 -19.505548 19.475135 75.325444 -11.020402 3.662811 -2.256085 -9.120938 -20.380590 0.000000 0.000000 0.000000 30.215538 -60.627819 19.793989 -6.931489 0.079222 -29.119542 27.724322 -9.992422 -12.283085 15.556582 -30.678761 35.138082 0.000000 0.000000 0.000000 30.215538 -60.627819 19.793989 0.000000 0.000001 0.000000 0.527870 10.452537 -3.722565 -1.355277 7.100674 -2.777774 0.000000 0.000000 0.000000 -1.334881 2.415458 1.468700 4.600103 1.971415 -1.262321 0.000000 0.000000 0.000000 -1.334881 2.415458 1.468700 3.709887 4.461138 -12.224696 -59.499014 -36.268441 -52.338572 0.000060 -78.223930 0.000061 0.000000 0.000000 0.000000 -1.334881 2.415458 1.468700 -14.507166 3.255177 -3.979764 -104.625992 40.103244 122.653942 -0.000015 30.759019 0.000000 0.000000 0.000000 0.000000 
-4.726969 68.850693 -64.622276 0.000000 0.000000 0.000000 31.966648 -64.151596 22.786220 -82.638759 -22.816266 21.964070 69.371909 -10.403153 6.591194 -0.740414 -5.916987 -26.105646 0.000000 0.000000 0.000000 31.966648 -64.151596 22.786220 -0.832448 -2.201970 -33.170585 20.682827 -6.624026 -8.921477 10.304810 -31.204334 42.931608 0.000000 0.000000 0.000000 31.966648 -64.151596 22.786220 -0.000001 0.000001 -0.000001 0.547722 11.171966 -3.835104 -1.437426 7.416955 -2.861818 0.000000 0.000000 0.000000 -1.423767 2.766490 1.373205 4.915562 1.918009 -1.337465 0.000000 0.000000 0.000000 -1.423767 2.766490 1.373205 3.757804 4.791509 -12.311204 -58.213497 -35.108159 -52.313235 -0.000112 -79.907408 -0.000132 0.000000 0.000000 0.000000 -1.423767 2.766490 1.373205 -14.454495 3.471799 -3.836298 -102.972492 40.018345 122.595694 -0.000005 32.180713 0.000001 0.000000 0.000000 0.000000 
